  0
SECTION
  2
ENTITIES
  0
LINE
  8
0
 10
0.000100
 20
0.000100
 11
0.000100
 21
500.000100
  0
LINE
  8
0
 10
0.000100
 20
500.000100
 11
500.000100
 21
500.000100
  0
LINE
  8
0
 10
500.000100
 20
500.000100
 11
500.000100
 21
0.000100
  0
LINE
  8
0
 10
500.000100
 20
0.000100
 11
0.000100
 21
0.000100
  0
ARC
  8
0
 10
53.000199
 20
53.000199
 40
35.000000
 50
0.000000
 51
180.000000
  0
ARC
  8
0
 10
53.000199
 20
53.000199
 40
35.000000
 50
180.000000
 51
0.000000
  0
ARC
  8
0
 10
53.000199
 20
53.000199
 40
40.000000
 50
0.000000
 51
180.000000
  0
ARC
  8
0
 10
53.000199
 20
53.000199
 40
40.000000
 50
180.000000
 51
0.000000
  0
ARC
  8
0
 10
53.000199
 20
53.000199
 40
45.000000
 50
0.000000
 51
180.000000
  0
ARC
  8
0
 10
53.000199
 20
53.000199
 40
45.000000
 50
180.000000
 51
0.000000
  0
ARC
  8
0
 10
53.000199
 20
53.000199
 40
50.000000
 50
0.000000
 51
180.000000
  0
ARC
  8
0
 10
53.000199
 20
53.000199
 40
50.000000
 50
180.000000
 51
0.000000
  0
ARC
  8
0
 10
163.000405
 20
53.000199
 40
35.000000
 50
0.000000
 51
180.000000
  0
ARC
  8
0
 10
163.000405
 20
53.000199
 40
35.000000
 50
180.000000
 51
0.000000
  0
ARC
  8
0
 10
163.000405
 20
53.000199
 40
40.000008
 50
0.000000
 51
180.000000
  0
ARC
  8
0
 10
163.000405
 20
53.000199
 40
40.000000
 50
180.000000
 51
0.000000
  0
ARC
  8
0
 10
163.000405
 20
53.000199
 40
45.000008
 50
0.000000
 51
180.000000
  0
ARC
  8
0
 10
163.000405
 20
53.000199
 40
45.000000
 50
180.000000
 51
0.000000
  0
ARC
  8
0
 10
163.000405
 20
53.000199
 40
50.000008
 50
0.000000
 51
180.000000
  0
ARC
  8
0
 10
163.000405
 20
53.000199
 40
50.000000
 50
180.000000
 51
0.000000
  0
ARC
  8
0
 10
273.000588
 20
53.000199
 40
35.000000
 50
0.000000
 51
180.000000
  0
ARC
  8
0
 10
273.000588
 20
53.000199
 40
35.000000
 50
180.000000
 51
0.000000
  0
ARC
  8
0
 10
273.000588
 20
53.000199
 40
40.000000
 50
0.000000
 51
180.000000
  0
ARC
  8
0
 10
273.000588
 20
53.000199
 40
40.000000
 50
180.000000
 51
0.000000
  0
ARC
  8
0
 10
273.000588
 20
53.000199
 40
45.000000
 50
0.000000
 51
180.000000
  0
ARC
  8
0
 10
273.000588
 20
53.000199
 40
45.000000
 50
180.000000
 51
0.000000
  0
ARC
  8
0
 10
273.000588
 20
53.000199
 40
50.000000
 50
0.000000
 51
180.000000
  0
ARC
  8
0
 10
273.000588
 20
53.000199
 40
50.000000
 50
180.000000
 51
0.000000
  0
ARC
  8
0
 10
383.000802
 20
53.000199
 40
35.000000
 50
0.000000
 51
180.000000
  0
ARC
  8
0
 10
383.000802
 20
53.000199
 40
35.000000
 50
180.000000
 51
0.000000
  0
ARC
  8
0
 10
383.000802
 20
53.000199
 40
40.000000
 50
0.000000
 51
180.000000
  0
ARC
  8
0
 10
383.000802
 20
53.000199
 40
40.000000
 50
180.000000
 51
0.000000
  0
ARC
  8
0
 10
383.000802
 20
53.000199
 40
45.000000
 50
0.000000
 51
180.000000
  0
ARC
  8
0
 10
383.000802
 20
53.000199
 40
45.000000
 50
180.000000
 51
0.000000
  0
ARC
  8
0
 10
383.000802
 20
53.000199
 40
50.000000
 50
0.000000
 51
180.000000
  0
ARC
  8
0
 10
383.000802
 20
53.000199
 40
50.000000
 50
180.000000
 51
0.000000
  0
ARC
  8
0
 10
108.001244
 20
139.518823
 40
35.000023
 50
0.000000
 51
180.000000
  0
ARC
  8
0
 10
108.001244
 20
139.518823
 40
35.000031
 50
180.000000
 51
0.000000
  0
ARC
  8
0
 10
108.001244
 20
139.518823
 40
40.000023
 50
0.000000
 51
180.000000
  0
ARC
  8
0
 10
108.001244
 20
139.518823
 40
40.000031
 50
180.000000
 51
0.000000
  0
ARC
  8
0
 10
108.001260
 20
139.518823
 40
45.000038
 50
0.000000
 51
180.000000
  0
ARC
  8
0
 10
108.001260
 20
139.518823
 40
45.000031
 50
180.000000
 51
0.000000
  0
ARC
  8
0
 10
108.001275
 20
139.518823
 40
50.000053
 50
0.000000
 51
180.000000
  0
ARC
  8
0
 10
108.001275
 20
139.518823
 40
50.000061
 50
180.000000
 51
0.000000
  0
ARC
  8
0
 10
218.001626
 20
139.518823
 40
35.000076
 50
0.000000
 51
180.000000
  0
ARC
  8
0
 10
218.001626
 20
139.518823
 40
35.000061
 50
180.000000
 51
0.000000
  0
ARC
  8
0
 10
218.001626
 20
139.518823
 40
40.000076
 50
0.000000
 51
180.000000
  0
ARC
  8
0
 10
218.001626
 20
139.518823
 40
40.000061
 50
180.000000
 51
0.000000
  0
ARC
  8
0
 10
218.001687
 20
139.518823
 40
45.000137
 50
0.000000
 51
180.000000
  0
ARC
  8
0
 10
218.001687
 20
139.518823
 40
45.000122
 50
180.000000
 51
0.000000
  0
ARC
  8
0
 10
218.001748
 20
139.518823
 40
50.000198
 50
0.000000
 51
180.000000
  0
ARC
  8
0
 10
218.001748
 20
139.518823
 40
50.000183
 50
180.000000
 51
0.000000
  0
ARC
  8
0
 10
328.002847
 20
139.518823
 40
35.000122
 50
0.000000
 51
180.000000
  0
ARC
  8
0
 10
328.002847
 20
139.518823
 40
35.000092
 50
180.000000
 51
0.000000
  0
ARC
  8
0
 10
328.002786
 20
139.518823
 40
40.000183
 50
0.000000
 51
180.000000
  0
ARC
  8
0
 10
328.002786
 20
139.518823
 40
40.000153
 50
180.000000
 51
0.000000
  0
ARC
  8
0
 10
328.002725
 20
139.518823
 40
45.000244
 50
0.000000
 51
180.000000
  0
ARC
  8
0
 10
328.002725
 20
139.518823
 40
45.000214
 50
180.000000
 51
0.000000
  0
ARC
  8
0
 10
328.002663
 20
139.518823
 40
50.000305
 50
0.000000
 51
180.000000
  0
ARC
  8
0
 10
328.002663
 20
139.518823
 40
50.000275
 50
180.000000
 51
0.000000
  0
ARC
  8
0
 10
438.003182
 20
139.518823
 40
35.000000
 50
0.000000
 51
180.000000
  0
ARC
  8
0
 10
438.003182
 20
139.518823
 40
35.000000
 50
180.000000
 51
0.000000
  0
ARC
  8
0
 10
438.003182
 20
139.518823
 40
40.000000
 50
0.000000
 51
180.000000
  0
ARC
  8
0
 10
438.003182
 20
139.518823
 40
40.000000
 50
180.000000
 51
0.000000
  0
ARC
  8
0
 10
438.003182
 20
139.518823
 40
45.000000
 50
0.000000
 51
180.000000
  0
ARC
  8
0
 10
438.003182
 20
139.518823
 40
45.000000
 50
180.000000
 51
0.000000
  0
ARC
  8
0
 10
438.003182
 20
139.518823
 40
50.000000
 50
0.000000
 51
180.000000
  0
ARC
  8
0
 10
438.003182
 20
139.518823
 40
50.000000
 50
180.000000
 51
0.000000
  0
ARC
  8
0
 10
53.000199
 20
226.069314
 40
35.000000
 50
0.000000
 51
180.000000
  0
ARC
  8
0
 10
53.000199
 20
226.069314
 40
35.000000
 50
180.000000
 51
0.000000
  0
ARC
  8
0
 10
53.000199
 20
226.069314
 40
40.000000
 50
0.000000
 51
180.000000
  0
ARC
  8
0
 10
53.000199
 20
226.069314
 40
40.000000
 50
180.000000
 51
0.000000
  0
ARC
  8
0
 10
53.000199
 20
226.069314
 40
45.000000
 50
0.000000
 51
180.000000
  0
ARC
  8
0
 10
53.000199
 20
226.069314
 40
45.000000
 50
180.000000
 51
0.000000
  0
ARC
  8
0
 10
53.000199
 20
226.069314
 40
50.000000
 50
0.000000
 51
180.000000
  0
ARC
  8
0
 10
53.000199
 20
226.069314
 40
50.000000
 50
180.000000
 51
0.000000
  0
ARC
  8
0
 10
163.000405
 20
226.069314
 40
35.000000
 50
0.000000
 51
180.000000
  0
ARC
  8
0
 10
163.000405
 20
226.069314
 40
35.000000
 50
180.000000
 51
0.000000
  0
ARC
  8
0
 10
163.000405
 20
226.069314
 40
40.000008
 50
0.000000
 51
180.000000
  0
ARC
  8
0
 10
163.000405
 20
226.069314
 40
40.000000
 50
180.000000
 51
0.000000
  0
ARC
  8
0
 10
163.000405
 20
226.069314
 40
45.000008
 50
0.000000
 51
180.000000
  0
ARC
  8
0
 10
163.000405
 20
226.069314
 40
45.000000
 50
180.000000
 51
0.000000
  0
ARC
  8
0
 10
163.000405
 20
226.069314
 40
50.000008
 50
0.000000
 51
180.000000
  0
ARC
  8
0
 10
163.000405
 20
226.069314
 40
50.000000
 50
180.000000
 51
0.000000
  0
ARC
  8
0
 10
273.000588
 20
226.069314
 40
35.000000
 50
0.000000
 51
180.000000
  0
ARC
  8
0
 10
273.000588
 20
226.069314
 40
35.000000
 50
180.000000
 51
0.000000
  0
ARC
  8
0
 10
273.000588
 20
226.069314
 40
40.000000
 50
0.000000
 51
180.000000
  0
ARC
  8
0
 10
273.000588
 20
226.069314
 40
40.000000
 50
180.000000
 51
0.000000
  0
ARC
  8
0
 10
273.000588
 20
226.069314
 40
45.000000
 50
0.000000
 51
180.000000
  0
ARC
  8
0
 10
273.000588
 20
226.069314
 40
45.000000
 50
180.000000
 51
0.000000
  0
ARC
  8
0
 10
273.000588
 20
226.069314
 40
50.000000
 50
0.000000
 51
180.000000
  0
ARC
  8
0
 10
273.000588
 20
226.069314
 40
50.000000
 50
180.000000
 51
0.000000
  0
ARC
  8
0
 10
383.000802
 20
226.069314
 40
35.000000
 50
0.000000
 51
180.000000
  0
ARC
  8
0
 10
383.000802
 20
226.069314
 40
35.000000
 50
180.000000
 51
0.000000
  0
ARC
  8
0
 10
383.000802
 20
226.069314
 40
40.000000
 50
0.000000
 51
180.000000
  0
ARC
  8
0
 10
383.000802
 20
226.069314
 40
40.000000
 50
180.000000
 51
0.000000
  0
ARC
  8
0
 10
383.000802
 20
226.069314
 40
45.000000
 50
0.000000
 51
180.000000
  0
ARC
  8
0
 10
383.000802
 20
226.069314
 40
45.000000
 50
180.000000
 51
0.000000
  0
ARC
  8
0
 10
383.000802
 20
226.069314
 40
50.000000
 50
0.000000
 51
180.000000
  0
ARC
  8
0
 10
383.000802
 20
226.069314
 40
50.000000
 50
180.000000
 51
0.000000
  0
ARC
  8
0
 10
108.001244
 20
312.587930
 40
35.000023
 50
0.000000
 51
180.000000
  0
ARC
  8
0
 10
108.001244
 20
312.587930
 40
35.000031
 50
180.000000
 51
0.000000
  0
ARC
  8
0
 10
108.001244
 20
312.587930
 40
40.000023
 50
0.000000
 51
180.000000
  0
ARC
  8
0
 10
108.001244
 20
312.587930
 40
40.000031
 50
180.000000
 51
0.000000
  0
ARC
  8
0
 10
108.001260
 20
312.587930
 40
45.000038
 50
0.000000
 51
180.000000
  0
ARC
  8
0
 10
108.001260
 20
312.587930
 40
45.000031
 50
180.000000
 51
0.000000
  0
ARC
  8
0
 10
108.001275
 20
312.587930
 40
50.000053
 50
0.000000
 51
180.000000
  0
ARC
  8
0
 10
108.001275
 20
312.587930
 40
50.000061
 50
180.000000
 51
0.000000
  0
ARC
  8
0
 10
218.001626
 20
312.587930
 40
35.000076
 50
0.000000
 51
180.000000
  0
ARC
  8
0
 10
218.001626
 20
312.587930
 40
35.000061
 50
180.000000
 51
0.000000
  0
ARC
  8
0
 10
218.001626
 20
312.587930
 40
40.000076
 50
0.000000
 51
180.000000
  0
ARC
  8
0
 10
218.001626
 20
312.587930
 40
40.000061
 50
180.000000
 51
0.000000
  0
ARC
  8
0
 10
218.001687
 20
312.587930
 40
45.000137
 50
0.000000
 51
180.000000
  0
ARC
  8
0
 10
218.001687
 20
312.587930
 40
45.000122
 50
180.000000
 51
0.000000
  0
ARC
  8
0
 10
218.001748
 20
312.587930
 40
50.000198
 50
0.000000
 51
180.000000
  0
ARC
  8
0
 10
218.001748
 20
312.587930
 40
50.000183
 50
180.000000
 51
0.000000
  0
ARC
  8
0
 10
328.002847
 20
312.587930
 40
35.000122
 50
0.000000
 51
180.000000
  0
ARC
  8
0
 10
328.002847
 20
312.587930
 40
35.000092
 50
180.000000
 51
0.000000
  0
ARC
  8
0
 10
328.002786
 20
312.587930
 40
40.000183
 50
0.000000
 51
180.000000
  0
ARC
  8
0
 10
328.002786
 20
312.587930
 40
40.000153
 50
180.000000
 51
0.000000
  0
ARC
  8
0
 10
328.002725
 20
312.587930
 40
45.000244
 50
0.000000
 51
180.000000
  0
ARC
  8
0
 10
328.002725
 20
312.587930
 40
45.000214
 50
180.000000
 51
0.000000
  0
ARC
  8
0
 10
328.002663
 20
312.587930
 40
50.000305
 50
0.000000
 51
180.000000
  0
ARC
  8
0
 10
328.002663
 20
312.587930
 40
50.000275
 50
180.000000
 51
0.000000
  0
ARC
  8
0
 10
438.003182
 20
312.587930
 40
35.000000
 50
0.000000
 51
180.000000
  0
ARC
  8
0
 10
438.003182
 20
312.587930
 40
35.000000
 50
180.000000
 51
0.000000
  0
ARC
  8
0
 10
438.003182
 20
312.587930
 40
40.000000
 50
0.000000
 51
180.000000
  0
ARC
  8
0
 10
438.003182
 20
312.587930
 40
40.000000
 50
180.000000
 51
0.000000
  0
ARC
  8
0
 10
438.003182
 20
312.587930
 40
45.000000
 50
0.000000
 51
180.000000
  0
ARC
  8
0
 10
438.003182
 20
312.587930
 40
45.000000
 50
180.000000
 51
0.000000
  0
ARC
  8
0
 10
438.003182
 20
312.587930
 40
50.000000
 50
0.000000
 51
180.000000
  0
ARC
  8
0
 10
438.003182
 20
312.587930
 40
50.000000
 50
180.000000
 51
0.000000
  0
ARC
  8
0
 10
53.000199
 20
399.138436
 40
35.000000
 50
0.000000
 51
180.000000
  0
ARC
  8
0
 10
53.000199
 20
399.138436
 40
35.000000
 50
180.000000
 51
0.000000
  0
ARC
  8
0
 10
53.000199
 20
399.138436
 40
40.000000
 50
0.000000
 51
180.000000
  0
ARC
  8
0
 10
53.000199
 20
399.138436
 40
40.000000
 50
180.000000
 51
0.000000
  0
ARC
  8
0
 10
53.000199
 20
399.138436
 40
45.000000
 50
0.000000
 51
180.000000
  0
ARC
  8
0
 10
53.000199
 20
399.138436
 40
45.000000
 50
180.000000
 51
0.000000
  0
ARC
  8
0
 10
53.000199
 20
399.138436
 40
50.000000
 50
0.000000
 51
180.000000
  0
ARC
  8
0
 10
53.000199
 20
399.138436
 40
50.000000
 50
180.000000
 51
0.000000
  0
ARC
  8
0
 10
163.000405
 20
399.138436
 40
35.000000
 50
0.000000
 51
180.000000
  0
ARC
  8
0
 10
163.000405
 20
399.138436
 40
35.000000
 50
180.000000
 51
0.000000
  0
ARC
  8
0
 10
163.000405
 20
399.138436
 40
40.000008
 50
0.000000
 51
180.000000
  0
ARC
  8
0
 10
163.000405
 20
399.138436
 40
40.000000
 50
180.000000
 51
0.000000
  0
ARC
  8
0
 10
163.000405
 20
399.138436
 40
45.000008
 50
0.000000
 51
180.000000
  0
ARC
  8
0
 10
163.000405
 20
399.138436
 40
45.000000
 50
180.000000
 51
0.000000
  0
ARC
  8
0
 10
163.000405
 20
399.138436
 40
50.000008
 50
0.000000
 51
180.000000
  0
ARC
  8
0
 10
163.000405
 20
399.138436
 40
50.000000
 50
180.000000
 51
0.000000
  0
ARC
  8
0
 10
273.000588
 20
399.138436
 40
35.000000
 50
0.000000
 51
180.000000
  0
ARC
  8
0
 10
273.000588
 20
399.138436
 40
35.000000
 50
180.000000
 51
0.000000
  0
ARC
  8
0
 10
273.000588
 20
399.138436
 40
40.000000
 50
0.000000
 51
180.000000
  0
ARC
  8
0
 10
273.000588
 20
399.138436
 40
40.000000
 50
180.000000
 51
0.000000
  0
ARC
  8
0
 10
273.000588
 20
399.138436
 40
45.000000
 50
0.000000
 51
180.000000
  0
ARC
  8
0
 10
273.000588
 20
399.138436
 40
45.000000
 50
180.000000
 51
0.000000
  0
ARC
  8
0
 10
273.000588
 20
399.138436
 40
50.000000
 50
0.000000
 51
180.000000
  0
ARC
  8
0
 10
273.000588
 20
399.138436
 40
50.000000
 50
180.000000
 51
0.000000
  0
ARC
  8
0
 10
383.000802
 20
399.138436
 40
35.000000
 50
0.000000
 51
180.000000
  0
ARC
  8
0
 10
383.000802
 20
399.138436
 40
35.000000
 50
180.000000
 51
0.000000
  0
ARC
  8
0
 10
383.000802
 20
399.138436
 40
40.000000
 50
0.000000
 51
180.000000
  0
ARC
  8
0
 10
383.000802
 20
399.138436
 40
40.000000
 50
180.000000
 51
0.000000
  0
ARC
  8
0
 10
383.000802
 20
399.138436
 40
45.000000
 50
0.000000
 51
180.000000
  0
ARC
  8
0
 10
383.000802
 20
399.138436
 40
45.000000
 50
180.000000
 51
0.000000
  0
ARC
  8
0
 10
383.000802
 20
399.138436
 40
50.000000
 50
0.000000
 51
180.000000
  0
ARC
  8
0
 10
383.000802
 20
399.138436
 40
50.000000
 50
180.000000
 51
0.000000
  0
ENDSEC
  0
EOF
