  0
SECTION
  2
ENTITIES
  0
LINE
  8
0
 10
44.896179
 20
55.971130
 11
45.686157
 21
50.882141
  0
LINE
  8
0
 10
45.686157
 20
50.882141
 11
39.757141
 21
49.962158
  0
LINE
  8
0
 10
39.757141
 20
49.962158
 11
40.523132
 21
45.021179
  0
LINE
  8
0
 10
40.523132
 20
45.021179
 11
30.500183
 21
43.466125
  0
ARC
  8
0
 10
31.242126
 20
38.672119
 40
4.851080
 50
98.797569
 51
188.797653
  0
LINE
  8
0
 10
26.448151
 20
37.930176
 11
26.754120
 21
35.953125
  0
ARC
  8
0
 10
16.725159
 20
34.397095
 40
10.148955
 50
278.819244
 51
8.819331
  0
LINE
  8
0
 10
18.281158
 20
24.368164
 11
16.305145
 21
24.062134
  0
ARC
  8
0
 10
17.048645
 20
19.269653
 40
4.849811
 50
98.818504
 51
188.818588
  0
LINE
  8
0
 10
12.256134
 20
18.526123
 11
13.811127
 21
8.496155
  0
LINE
  8
0
 10
13.811127
 20
8.496155
 11
8.870117
 21
7.730164
  0
LINE
  8
0
 10
8.870117
 20
7.730164
 11
9.943146
 21
0.813171
  0
LINE
  8
0
 10
9.943146
 20
0.813171
 11
4.706146
 21
0.000122
  0
LINE
  8
0
 10
4.706146
 20
0.000122
 11
0.238129
 21
28.805176
  0
ARC
  8
0
 10
20.150116
 20
31.893188
 40
20.150013
 50
98.815308
 51
188.815384
  0
LINE
  8
0
 10
17.062164
 20
51.805176
 11
44.873169
 21
56.119141
  0
LINE
  8
0
 10
44.873169
 20
56.119141
 11
44.896179
 21
55.971130
  0
ARC
  8
0
 10
15.013702
 20
35.650085
 40
4.974870
 50
323.817932
 51
98.817345
  0
ARC
  8
0
 10
15.013611
 20
35.650513
 40
4.975208
 50
188.814972
 51
323.814392
  0
ARC
  8
0
 10
15.013153
 20
35.650146
 40
4.974725
 50
98.811127
 51
188.811203
  0
ARC
  8
0
 10
7.592163
 20
11.731384
 40
2.500277
 50
323.812927
 51
98.812042
  0
ARC
  8
0
 10
7.592499
 20
11.731140
 40
2.499897
 50
188.813385
 51
323.812500
  0
ARC
  8
0
 10
7.592621
 20
11.731628
 40
2.500076
 50
98.823296
 51
188.823380
  0
ARC
  8
0
 10
35.556274
 20
49.968384
 40
2.500291
 50
323.811859
 51
98.814117
  0
ARC
  8
0
 10
35.556519
 20
49.968079
 40
2.499861
 50
188.811371
 51
323.813629
  0
ARC
  8
0
 10
35.556641
 20
49.968689
 40
2.500055
 50
98.824783
 51
188.824875
  0
ENDSEC
  0
EOF
