  0
SECTION
  2
ENTITIES
  0
ARC
  8
0
 10
4.150063
 20
12.157654
 40
2.500000
 50
0.000000
 51
180.000000
  0
ARC
  8
0
 10
4.150063
 20
12.157654
 40
2.500000
 50
180.000000
 51
360.000000
  0
ARC
  8
0
 10
119.647255
 20
64.657288
 40
4.927544
 50
359.970215
 51
89.970284
  0
ARC
  8
0
 10
119.650574
 20
64.658630
 40
4.926147
 50
90.009499
 51
225.008621
  0
ARC
  8
0
 10
119.650535
 20
64.655945
 40
4.924273
 50
224.987076
 51
359.986176
  0
ARC
  8
0
 10
58.150032
 20
77.154724
 40
2.499969
 50
0.000000
 51
180.000000
  0
ARC
  8
0
 10
58.150032
 20
77.154724
 40
2.499969
 50
180.000000
 51
360.000000
  0
LINE
  8
0
 10
135.649696
 20
45.004639
 11
127.799782
 21
45.004639
  0
LINE
  8
0
 10
127.799782
 20
45.004639
 11
127.799782
 21
40.004639
  0
LINE
  8
0
 10
127.799782
 20
40.004639
 11
118.649757
 21
40.004639
  0
ARC
  8
0
 10
118.649750
 20
54.154663
 40
14.150024
 50
179.999969
 51
270.000061
  0
LINE
  8
0
 10
104.499733
 20
54.154663
 11
104.499733
 21
62.154724
  0
ARC
  8
0
 10
94.649765
 20
62.154724
 40
9.849968
 50
0.000000
 51
90.000084
  0
LINE
  8
0
 10
94.649757
 20
72.004700
 11
20.150062
 21
72.004700
  0
ARC
  8
0
 10
20.149996
 20
62.154724
 40
9.849976
 50
89.999611
 51
179.999695
  0
LINE
  8
0
 10
10.299966
 20
62.154724
 11
10.299966
 21
8.007629
  0
LINE
  8
0
 10
10.299966
 20
8.007629
 11
5.299966
 21
8.007629
  0
LINE
  8
0
 10
5.299966
 20
8.007629
 11
5.299966
 21
0.007629
  0
LINE
  8
0
 10
5.299966
 20
0.007629
 11
0.000100
 21
0.007629
  0
LINE
  8
0
 10
0.000100
 20
0.007629
 11
0.000100
 21
63.154724
  0
ARC
  8
0
 10
20.150080
 20
63.154724
 40
20.149979
 50
89.999924
 51
180.000000
  0
LINE
  8
0
 10
20.150062
 20
83.304749
 11
116.649757
 21
83.304749
  0
ARC
  8
0
 10
116.649742
 20
64.154724
 40
19.150024
 50
359.999878
 51
89.999954
  0
LINE
  8
0
 10
135.799721
 20
64.154724
 11
135.799721
 21
45.004639
  0
LINE
  8
0
 10
135.799721
 20
45.004639
 11
135.649696
 21
45.004639
  0
ARC
  8
0
 10
93.083778
 20
6.150146
 40
2.500000
 50
180.000000
 51
360.000000
  0
ARC
  8
0
 10
93.083778
 20
6.150146
 40
2.500000
 50
0.000000
 51
180.000000
  0
ARC
  8
0
 10
31.583164
 20
18.650635
 40
4.924496
 50
180.005692
 51
270.005768
  0
ARC
  8
0
 10
31.583626
 20
18.650879
 40
4.924744
 50
270.000366
 51
44.999443
  0
ARC
  8
0
 10
31.583675
 20
18.650391
 40
4.925004
 50
45.003674
 51
180.002777
  0
ARC
  8
0
 10
147.083717
 20
71.149231
 40
2.500000
 50
180.000000
 51
360.000000
  0
ARC
  8
0
 10
147.083717
 20
71.149231
 40
2.500000
 50
0.000000
 51
180.000000
  0
LINE
  8
0
 10
15.583656
 20
38.299133
 11
23.433693
 21
38.299133
  0
LINE
  8
0
 10
23.433693
 20
38.299133
 11
23.433693
 21
43.299133
  0
LINE
  8
0
 10
23.433693
 20
43.299133
 11
32.583656
 21
43.299133
  0
ARC
  8
0
 10
32.583668
 20
29.149109
 40
14.150024
 50
359.999969
 51
90.000046
  0
LINE
  8
0
 10
46.733681
 20
29.149109
 11
46.733681
 21
21.150146
  0
ARC
  8
0
 10
56.583679
 20
21.150085
 40
9.849998
 50
179.999649
 51
269.999725
  0
LINE
  8
0
 10
56.583656
 20
11.300110
 11
131.083717
 21
11.300110
  0
ARC
  8
0
 10
131.083687
 20
21.150085
 40
9.849976
 50
270.000183
 51
0.000273
  0
LINE
  8
0
 10
140.933693
 20
21.150146
 11
140.933693
 21
75.299133
  0
LINE
  8
0
 10
140.933693
 20
75.299133
 11
145.933693
 21
75.299133
  0
LINE
  8
0
 10
145.933693
 20
75.299133
 11
145.933693
 21
83.299133
  0
LINE
  8
0
 10
145.933693
 20
83.299133
 11
151.233681
 21
83.299133
  0
LINE
  8
0
 10
151.233681
 20
83.299133
 11
151.233681
 21
20.150146
  0
ARC
  8
0
 10
131.083702
 20
20.150085
 40
20.149979
 50
270.000122
 51
0.000174
  0
LINE
  8
0
 10
131.083717
 20
0.000122
 11
34.583656
 21
0.000122
  0
ARC
  8
0
 10
34.583671
 20
19.150085
 40
19.149963
 50
179.999878
 51
269.999969
  0
LINE
  8
0
 10
15.433693
 20
19.150146
 11
15.433693
 21
38.299133
  0
LINE
  8
0
 10
15.433693
 20
38.299133
 11
15.583656
 21
38.299133
  0
LINE
  8
0
 10
77.185158
 20
16.922119
 11
72.088478
 21
16.184143
  0
LINE
  8
0
 10
72.088478
 20
16.184143
 11
71.227943
 21
22.122131
  0
LINE
  8
0
 10
71.227943
 20
22.122131
 11
66.279640
 21
21.404114
  0
LINE
  8
0
 10
66.279640
 20
21.404114
 11
64.823768
 21
31.439148
  0
ARC
  8
0
 10
60.021068
 20
30.746460
 40
4.852396
 50
8.207110
 51
98.207191
  0
LINE
  8
0
 10
59.328346
 20
35.549133
 11
57.349159
 21
35.259094
  0
ARC
  8
0
 10
55.893677
 20
45.304565
 40
10.150366
 50
188.244110
 51
278.244202
  0
LINE
  8
0
 10
45.848183
 20
43.849121
 11
45.561378
 21
45.829102
  0
ARC
  8
0
 10
40.758648
 20
45.136414
 40
4.852426
 50
8.207058
 51
98.207146
  0
LINE
  8
0
 10
40.065956
 20
49.939148
 11
30.020973
 21
48.479126
  0
LINE
  8
0
 10
30.020973
 20
48.479126
 11
29.303749
 21
53.429077
  0
LINE
  8
0
 10
29.303749
 20
53.429077
 11
22.376259
 21
52.419067
  0
LINE
  8
0
 10
22.376259
 20
52.419067
 11
21.616066
 21
57.668945
  0
LINE
  8
0
 10
21.616066
 20
57.668945
 11
50.464455
 21
61.849060
  0
ARC
  8
0
 10
53.355305
 20
41.908325
 40
20.149191
 50
8.248737
 51
98.248825
  0
LINE
  8
0
 10
73.296059
 20
44.799133
 11
77.333656
 21
16.944092
  0
LINE
  8
0
 10
77.333656
 20
16.944092
 11
77.185158
 21
16.922119
  0
ARC
  8
0
 10
57.162453
 20
47.005371
 40
4.975170
 50
233.248779
 51
8.248197
  0
ARC
  8
0
 10
57.162636
 20
47.005371
 40
4.975255
 50
98.247215
 51
233.246643
  0
ARC
  8
0
 10
57.162517
 20
47.005554
 40
4.975083
 50
8.246169
 51
98.246254
  0
ARC
  8
0
 10
33.315918
 20
54.666443
 40
2.502299
 50
233.335815
 51
8.334933
  0
ARC
  8
0
 10
33.318272
 20
54.663635
 40
2.501481
 50
98.256058
 51
233.255173
  0
ARC
  8
0
 10
33.320442
 20
54.667847
 40
2.497593
 50
8.318822
 51
98.318909
  0
ARC
  8
0
 10
71.276131
 20
26.321777
 40
2.499785
 50
233.239319
 51
8.241586
  0
ARC
  8
0
 10
71.276558
 20
26.323547
 40
2.501465
 50
98.253395
 51
233.255661
  0
ARC
  8
0
 10
71.274269
 20
26.323303
 40
2.501409
 50
8.200796
 51
98.200882
  0
LINE
  8
0
 10
74.195656
 20
60.589050
 11
79.249245
 21
61.579041
  0
LINE
  8
0
 10
79.249245
 20
61.579041
 11
80.404274
 21
55.689148
  0
LINE
  8
0
 10
80.404274
 20
55.689148
 11
85.310768
 21
56.649109
  0
LINE
  8
0
 10
85.310768
 20
56.649109
 11
87.264748
 21
46.699097
  0
ARC
  8
0
 10
92.026222
 20
47.630615
 40
4.851738
 50
191.069351
 51
281.069427
  0
LINE
  8
0
 10
92.957741
 20
42.869141
 11
94.920753
 21
43.249146
  0
ARC
  8
0
 10
96.877762
 20
33.292175
 40
10.147470
 50
11.119466
 51
101.119553
  0
LINE
  8
0
 10
106.834755
 20
35.249146
 11
107.219765
 21
33.289124
  0
ARC
  8
0
 10
111.981270
 20
34.220581
 40
4.851757
 50
191.068573
 51
281.068665
  0
LINE
  8
0
 10
112.912758
 20
29.459106
 11
122.872780
 21
31.419128
  0
LINE
  8
0
 10
122.872780
 20
31.419128
 11
123.835792
 21
26.508118
  0
LINE
  8
0
 10
123.835792
 20
26.508118
 11
130.704689
 21
27.856140
  0
LINE
  8
0
 10
130.704689
 20
27.856140
 11
131.724708
 21
22.655151
  0
LINE
  8
0
 10
131.724708
 20
22.655151
 11
103.119728
 21
17.043091
  0
ARC
  8
0
 10
99.241821
 20
36.817017
 40
20.150591
 50
191.095490
 51
281.095581
  0
LINE
  8
0
 10
79.467873
 20
32.939148
 11
74.048378
 21
60.559021
  0
LINE
  8
0
 10
74.048378
 20
60.559021
 11
74.195656
 21
60.589050
  0
ARC
  8
0
 10
95.689918
 20
31.533447
 40
4.972566
 50
56.065567
 51
191.064987
  0
ARC
  8
0
 10
95.692337
 20
31.531738
 40
4.972661
 50
281.100800
 51
56.100231
  0
ARC
  8
0
 10
95.693275
 20
31.535583
 40
4.976271
 50
191.081619
 51
281.081696
  0
ARC
  8
0
 10
119.888344
 20
25.071655
 40
2.500353
 50
56.104008
 51
191.103119
  0
ARC
  8
0
 10
119.888481
 20
25.072205
 40
2.499833
 50
281.100830
 51
56.099934
  0
ARC
  8
0
 10
119.887794
 20
25.072144
 40
2.499908
 50
191.116455
 51
281.116547
  0
ARC
  8
0
 10
80.566261
 20
51.492310
 40
2.501030
 50
56.136288
 51
191.138550
  0
ARC
  8
0
 10
80.565201
 20
51.493225
 40
2.500869
 50
281.102448
 51
56.104721
  0
ARC
  8
0
 10
80.564583
 20
51.491333
 40
2.499171
 50
191.124756
 51
281.124847
  0
ENDSEC
  0
EOF
